<svg width="68" height="23" viewBox="0 0 68 23" fill="none" xmlns="http://www.w3.org/2000/svg">
<path d="M10.56 7.4C10.3067 6.93333 9.94 6.58 9.46 6.34C8.99333 6.08667 8.44 5.96 7.8 5.96C6.69333 5.96 5.80667 6.32667 5.14 7.06C4.47333 7.78 4.14 8.74667 4.14 9.96C4.14 11.2533 4.48667 12.2667 5.18 13C5.88667 13.72 6.85333 14.08 8.08 14.08C8.92 14.08 9.62667 13.8667 10.2 13.44C10.7867 13.0133 11.2133 12.4 11.48 11.6H7.14V9.08H14.58V12.26C14.3267 13.1133 13.8933 13.9067 13.28 14.64C12.68 15.3733 11.9133 15.9667 10.98 16.42C10.0467 16.8733 8.99333 17.1 7.82 17.1C6.43333 17.1 5.19333 16.8 4.1 16.2C3.02 15.5867 2.17333 14.74 1.56 13.66C0.96 12.58 0.66 11.3467 0.66 9.96C0.66 8.57333 0.96 7.34 1.56 6.26C2.17333 5.16667 3.02 4.32 4.1 3.72C5.18 3.10667 6.41333 2.8 7.8 2.8C9.48 2.8 10.8933 3.20667 12.04 4.02C13.2 4.83333 13.9667 5.96 14.34 7.4H10.56ZM21.5544 17.16C20.461 17.16 19.4744 16.9267 18.5944 16.46C17.7277 15.9933 17.041 15.3267 16.5344 14.46C16.041 13.5933 15.7944 12.58 15.7944 11.42C15.7944 10.2733 16.0477 9.26667 16.5544 8.4C17.061 7.52 17.7544 6.84667 18.6344 6.38C19.5144 5.91333 20.501 5.68 21.5944 5.68C22.6877 5.68 23.6744 5.91333 24.5544 6.38C25.4344 6.84667 26.1277 7.52 26.6344 8.4C27.141 9.26667 27.3944 10.2733 27.3944 11.42C27.3944 12.5667 27.1344 13.58 26.6144 14.46C26.1077 15.3267 25.4077 15.9933 24.5144 16.46C23.6344 16.9267 22.6477 17.16 21.5544 17.16ZM21.5544 14.2C22.2077 14.2 22.761 13.96 23.2144 13.48C23.681 13 23.9144 12.3133 23.9144 11.42C23.9144 10.5267 23.6877 9.84 23.2344 9.36C22.7944 8.88 22.2477 8.64 21.5944 8.64C20.9277 8.64 20.3744 8.88 19.9344 9.36C19.4944 9.82667 19.2744 10.5133 19.2744 11.42C19.2744 12.3133 19.4877 13 19.9144 13.48C20.3544 13.96 20.901 14.2 21.5544 14.2ZM39.3088 2.96V5.7H35.5888V17H32.1688V5.7H28.4488V2.96H39.3088ZM44.4452 7.7C44.8452 7.08667 45.3452 6.60667 45.9452 6.26C46.5452 5.9 47.2118 5.72 47.9452 5.72V9.34H47.0052C46.1518 9.34 45.5118 9.52667 45.0852 9.9C44.6585 10.26 44.4452 10.9 44.4452 11.82V17H41.0252V5.84H44.4452V7.7ZM51.2998 4.68C50.6998 4.68 50.2065 4.50667 49.8198 4.16C49.4465 3.8 49.2598 3.36 49.2598 2.84C49.2598 2.30667 49.4465 1.86667 49.8198 1.52C50.2065 1.16 50.6998 0.979999 51.2998 0.979999C51.8865 0.979999 52.3665 1.16 52.7398 1.52C53.1265 1.86667 53.3198 2.30667 53.3198 2.84C53.3198 3.36 53.1265 3.8 52.7398 4.16C52.3665 4.50667 51.8865 4.68 51.2998 4.68ZM52.9998 5.84V17H49.5798V5.84H52.9998ZM58.8983 7.42C59.2316 6.9 59.6916 6.48 60.2783 6.16C60.8649 5.84 61.5516 5.68 62.3383 5.68C63.2583 5.68 64.0916 5.91333 64.8383 6.38C65.5849 6.84667 66.1716 7.51333 66.5983 8.38C67.0383 9.24667 67.2583 10.2533 67.2583 11.4C67.2583 12.5467 67.0383 13.56 66.5983 14.44C66.1716 15.3067 65.5849 15.98 64.8383 16.46C64.0916 16.9267 63.2583 17.16 62.3383 17.16C61.5649 17.16 60.8783 17 60.2783 16.68C59.6916 16.36 59.2316 15.9467 58.8983 15.44V22.32H55.4783V5.84H58.8983V7.42ZM63.7783 11.4C63.7783 10.5467 63.5383 9.88 63.0583 9.4C62.5916 8.90667 62.0116 8.66 61.3183 8.66C60.6383 8.66 60.0583 8.90667 59.5783 9.4C59.1116 9.89333 58.8783 10.5667 58.8783 11.42C58.8783 12.2733 59.1116 12.9467 59.5783 13.44C60.0583 13.9333 60.6383 14.18 61.3183 14.18C61.9983 14.18 62.5783 13.9333 63.0583 13.44C63.5383 12.9333 63.7783 12.2533 63.7783 11.4Z" fill="white"/>
</svg>
